<mxfile host="app.diagrams.net" modified="2022-11-25T22:28:53.161Z" agent="5.0 (Windows)" etag="zlZYAtz-36aNtOGyNA4_" version="17.4.6" type="github">
  <diagram id="SngKc9SGxRIzSdC3kuCc" name="Page-1">
    <mxGraphModel dx="2719" dy="1029" grid="1" gridSize="10" guides="1" tooltips="1" connect="1" arrows="1" fold="1" page="1" pageScale="1" pageWidth="827" pageHeight="1169" math="0" shadow="0">
      <root>
        <mxCell id="0" />
        <mxCell id="1" parent="0" />
        <mxCell id="7pTXnG_uUtZiL6cOJXTh-1" value="user sincroniczado" style="shape=umlActor;verticalLabelPosition=bottom;verticalAlign=top;html=1;outlineConnect=0;" parent="1" vertex="1">
          <mxGeometry x="100" y="300" width="30" height="60" as="geometry" />
        </mxCell>
        <mxCell id="7pTXnG_uUtZiL6cOJXTh-2" value="" style="endArrow=classic;html=1;rounded=0;" parent="1" source="7pTXnG_uUtZiL6cOJXTh-26" target="7pTXnG_uUtZiL6cOJXTh-3" edge="1">
          <mxGeometry width="50" height="50" relative="1" as="geometry">
            <mxPoint x="-150" y="40.81300813008124" as="sourcePoint" />
            <mxPoint x="110" y="130" as="targetPoint" />
          </mxGeometry>
        </mxCell>
        <mxCell id="7pTXnG_uUtZiL6cOJXTh-3" value="CU01: Sincronizar ddbb" style="ellipse;whiteSpace=wrap;html=1;" parent="1" vertex="1">
          <mxGeometry x="144" y="20" width="120" height="80" as="geometry" />
        </mxCell>
        <mxCell id="7pTXnG_uUtZiL6cOJXTh-4" value="" style="endArrow=classic;html=1;rounded=0;" parent="1" source="7pTXnG_uUtZiL6cOJXTh-1" target="7pTXnG_uUtZiL6cOJXTh-5" edge="1">
          <mxGeometry width="50" height="50" relative="1" as="geometry">
            <mxPoint x="169.99999999999997" y="404.1" as="sourcePoint" />
            <mxPoint x="312.21" y="310" as="targetPoint" />
          </mxGeometry>
        </mxCell>
        <mxCell id="7pTXnG_uUtZiL6cOJXTh-5" value="CU02: Minar" style="ellipse;whiteSpace=wrap;html=1;" parent="1" vertex="1">
          <mxGeometry x="346.21" y="200" width="120" height="40" as="geometry" />
        </mxCell>
        <mxCell id="7pTXnG_uUtZiL6cOJXTh-6" value="" style="endArrow=classic;html=1;rounded=0;exitX=0.5;exitY=0.5;exitDx=0;exitDy=0;exitPerimeter=0;" parent="1" source="7pTXnG_uUtZiL6cOJXTh-1" target="7pTXnG_uUtZiL6cOJXTh-7" edge="1">
          <mxGeometry width="50" height="50" relative="1" as="geometry">
            <mxPoint x="140" y="405.36493919178326" as="sourcePoint" />
            <mxPoint x="322.21" y="390" as="targetPoint" />
          </mxGeometry>
        </mxCell>
        <mxCell id="7pTXnG_uUtZiL6cOJXTh-7" value="CU03: Realizar transaccion" style="ellipse;whiteSpace=wrap;html=1;" parent="1" vertex="1">
          <mxGeometry x="356.21" y="250" width="120" height="50" as="geometry" />
        </mxCell>
        <mxCell id="7pTXnG_uUtZiL6cOJXTh-8" value="" style="endArrow=classic;html=1;rounded=0;" parent="1" source="7pTXnG_uUtZiL6cOJXTh-1" target="7pTXnG_uUtZiL6cOJXTh-9" edge="1">
          <mxGeometry width="50" height="50" relative="1" as="geometry">
            <mxPoint x="115" y="420" as="sourcePoint" />
            <mxPoint x="322.21" y="480" as="targetPoint" />
          </mxGeometry>
        </mxCell>
        <mxCell id="7pTXnG_uUtZiL6cOJXTh-9" value="CU04: Comprobar transaccion" style="ellipse;whiteSpace=wrap;html=1;" parent="1" vertex="1">
          <mxGeometry x="356.21" y="330" width="120" height="40" as="geometry" />
        </mxCell>
        <mxCell id="7pTXnG_uUtZiL6cOJXTh-10" value="" style="endArrow=classic;html=1;rounded=0;" parent="1" source="7pTXnG_uUtZiL6cOJXTh-1" target="7pTXnG_uUtZiL6cOJXTh-11" edge="1">
          <mxGeometry width="50" height="50" relative="1" as="geometry">
            <mxPoint x="80" y="330" as="sourcePoint" />
            <mxPoint x="332.21" y="530" as="targetPoint" />
          </mxGeometry>
        </mxCell>
        <mxCell id="7pTXnG_uUtZiL6cOJXTh-11" value="CU05: Dame historico" style="ellipse;whiteSpace=wrap;html=1;" parent="1" vertex="1">
          <mxGeometry x="366.21" y="380" width="120" height="40" as="geometry" />
        </mxCell>
        <mxCell id="7pTXnG_uUtZiL6cOJXTh-12" value="minero" style="shape=umlActor;verticalLabelPosition=bottom;verticalAlign=top;html=1;outlineConnect=0;" parent="1" vertex="1">
          <mxGeometry x="476.21000000000004" y="70" width="30" height="60" as="geometry" />
        </mxCell>
        <mxCell id="7pTXnG_uUtZiL6cOJXTh-13" value="" style="endArrow=classic;html=1;rounded=0;exitX=0.593;exitY=0.235;exitDx=0;exitDy=0;exitPerimeter=0;" parent="1" source="7pTXnG_uUtZiL6cOJXTh-12" target="7pTXnG_uUtZiL6cOJXTh-14" edge="1">
          <mxGeometry width="50" height="50" relative="1" as="geometry">
            <mxPoint x="720" y="270" as="sourcePoint" />
            <mxPoint x="770" y="220" as="targetPoint" />
          </mxGeometry>
        </mxCell>
        <mxCell id="7pTXnG_uUtZiL6cOJXTh-14" value="CU07; Empezar mineria" style="ellipse;whiteSpace=wrap;html=1;" parent="1" vertex="1">
          <mxGeometry x="804" y="110" width="120" height="50" as="geometry" />
        </mxCell>
        <mxCell id="7pTXnG_uUtZiL6cOJXTh-15" value="&amp;lt;&amp;lt;implements&amp;gt;&amp;gt;" style="endArrow=classic;html=1;rounded=0;dashed=1;" parent="1" source="7pTXnG_uUtZiL6cOJXTh-16" target="7pTXnG_uUtZiL6cOJXTh-14" edge="1">
          <mxGeometry width="50" height="50" relative="1" as="geometry">
            <mxPoint x="680" y="404.1" as="sourcePoint" />
            <mxPoint x="822.21" y="310" as="targetPoint" />
          </mxGeometry>
        </mxCell>
        <mxCell id="7pTXnG_uUtZiL6cOJXTh-16" value="CU09: Cancelar mineria" style="ellipse;whiteSpace=wrap;html=1;" parent="1" vertex="1">
          <mxGeometry x="980" y="60" width="120" height="40" as="geometry" />
        </mxCell>
        <mxCell id="7pTXnG_uUtZiL6cOJXTh-17" value="" style="endArrow=classic;html=1;rounded=0;exitX=0.5;exitY=0.5;exitDx=0;exitDy=0;exitPerimeter=0;" parent="1" source="7pTXnG_uUtZiL6cOJXTh-12" target="7pTXnG_uUtZiL6cOJXTh-18" edge="1">
          <mxGeometry width="50" height="50" relative="1" as="geometry">
            <mxPoint x="650" y="405.36493919178326" as="sourcePoint" />
            <mxPoint x="832.21" y="390" as="targetPoint" />
          </mxGeometry>
        </mxCell>
        <mxCell id="7pTXnG_uUtZiL6cOJXTh-18" value="CU08: Editar configuracion" style="ellipse;whiteSpace=wrap;html=1;" parent="1" vertex="1">
          <mxGeometry x="820" y="190" width="120" height="50" as="geometry" />
        </mxCell>
        <mxCell id="7pTXnG_uUtZiL6cOJXTh-20" value="CU10: Mintar bloque" style="ellipse;whiteSpace=wrap;html=1;" parent="1" vertex="1">
          <mxGeometry x="996.21" y="140" width="120" height="40" as="geometry" />
        </mxCell>
        <mxCell id="7pTXnG_uUtZiL6cOJXTh-23" value="" style="endArrow=classic;html=1;rounded=0;" parent="1" source="7pTXnG_uUtZiL6cOJXTh-1" target="7pTXnG_uUtZiL6cOJXTh-24" edge="1">
          <mxGeometry width="50" height="50" relative="1" as="geometry">
            <mxPoint x="130" y="400.0034943351593" as="sourcePoint" />
            <mxPoint x="332.21" y="596.63" as="targetPoint" />
          </mxGeometry>
        </mxCell>
        <mxCell id="7pTXnG_uUtZiL6cOJXTh-24" value="CU06: Dame datos cuenta" style="ellipse;whiteSpace=wrap;html=1;" parent="1" vertex="1">
          <mxGeometry x="366.21" y="446.63" width="120" height="40" as="geometry" />
        </mxCell>
        <mxCell id="7pTXnG_uUtZiL6cOJXTh-25" value="&amp;lt;&amp;lt;implements&amp;gt;&amp;gt;" style="endArrow=classic;html=1;rounded=0;dashed=1;" parent="1" source="7pTXnG_uUtZiL6cOJXTh-20" edge="1">
          <mxGeometry width="50" height="50" relative="1" as="geometry">
            <mxPoint x="1011.3134391132858" y="105.28743131813712" as="sourcePoint" />
            <mxPoint x="925.5269104397207" y="139.50634243874754" as="targetPoint" />
          </mxGeometry>
        </mxCell>
        <mxCell id="7pTXnG_uUtZiL6cOJXTh-26" value="user sincroniczado" style="shape=umlActor;verticalLabelPosition=bottom;verticalAlign=top;html=1;outlineConnect=0;" parent="1" vertex="1">
          <mxGeometry x="-30" y="100" width="30" height="60" as="geometry" />
        </mxCell>
      </root>
    </mxGraphModel>
  </diagram>
</mxfile>
